<?xml version="1.0" encoding="UTF-8"?>
<!DOCTYPE svg PUBLIC "-//W3C//DTD SVG 1.1//EN" "http://www.w3.org/Graphics/SVG/1.1/DTD/svg11.dtd">
<svg xmlns="http://www.w3.org/2000/svg" version="1.1" width="2000px" height="2000px" style="shape-rendering:geometricPrecision; text-rendering:geometricPrecision; image-rendering:optimizeQuality; fill-rule:evenodd; clip-rule:evenodd" xmlns:xlink="http://www.w3.org/1999/xlink">
<g><path style="opacity:0.995" fill="#de5833" d="M 955.5,-0.5 C 984.5,-0.5 1013.5,-0.5 1042.5,-0.5C 1288.53,13.0716 1501.87,102.572 1682.5,268C 1848.41,425.284 1950.25,617.451 1988,844.5C 1993.56,881.477 1997.39,918.477 1999.5,955.5C 1999.5,984.5 1999.5,1013.5 1999.5,1042.5C 1985.93,1288.53 1896.43,1501.87 1731,1682.5C 1573.72,1848.41 1381.55,1950.25 1154.5,1988C 1117.52,1993.56 1080.52,1997.39 1043.5,1999.5C 1014.5,1999.5 985.5,1999.5 956.5,1999.5C 710.465,1985.93 497.132,1896.43 316.5,1731C 150.587,1573.72 48.754,1381.55 11,1154.5C 5.44344,1117.52 1.61011,1080.52 -0.5,1043.5C -0.5,1014.5 -0.5,985.5 -0.5,956.5C 13.0716,710.465 102.572,497.132 268,316.5C 425.284,150.587 617.451,48.754 844.5,11C 881.477,5.44344 918.477,1.61011 955.5,-0.5 Z"/></g>
<g><path style="opacity:1" fill="#fefefe" d="M 973.5,82.5 C 1211.53,79.3247 1420.53,154.158 1600.5,307C 1773.7,460.183 1876.53,652.016 1909,882.5C 1937.48,1134.33 1875.81,1360.66 1724,1561.5C 1589.8,1730.9 1417.3,1841.4 1206.5,1893C 989.012,1940.77 780.678,1915.11 581.5,1816C 410.699,1726.53 279.532,1596.7 188,1426.5C 84.7588,1225.25 57.4255,1013.91 106,792.5C 152.64,599.279 250.14,437.445 398.5,307C 563.713,166.12 755.38,91.2863 973.5,82.5 Z"/></g>
<g><path style="opacity:1" fill="#de5833" d="M 1125.5,1680.5 C 1126.23,1679.29 1126.57,1677.96 1126.5,1676.5C 1132.22,1674.47 1136.55,1670.81 1139.5,1665.5C 1181.76,1682.42 1224.76,1697.25 1268.5,1710C 1285.44,1715.47 1302.77,1718.13 1320.5,1718C 1323.43,1717.73 1325.93,1716.56 1328,1714.5C 1331.14,1709.89 1333.47,1704.89 1335,1699.5C 1339.52,1679.2 1342.35,1658.7 1343.5,1638C 1343.45,1616.45 1343.45,1595.12 1343.5,1574C 1341.89,1549.03 1339.06,1523.86 1335,1498.5C 1332.73,1485.09 1329.06,1472.09 1324,1459.5C 1317.96,1446.12 1308.13,1442.62 1294.5,1449C 1266.9,1460.63 1240.56,1474.63 1215.5,1491C 1187.72,1508.97 1160.56,1527.8 1134,1547.5C 1132.63,1541.67 1130.79,1536.01 1128.5,1530.5C 1126.29,1528.23 1123.62,1526.73 1120.5,1526C 1116.95,1525.22 1113.45,1524.38 1110,1523.5C 1092,1523 1074.16,1524 1056.5,1526.5C 1045.44,1494.48 1035.27,1462.14 1026,1429.5C 1015.77,1390.43 1009.1,1350.76 1006,1310.5C 1005,1288.44 1005.5,1266.44 1007.5,1244.5C 1008.5,1244.41 1009.33,1244.75 1010,1245.5C 1010.54,1240.83 1011.04,1236.16 1011.5,1231.5C 1011.5,1229.17 1011.5,1226.83 1011.5,1224.5C 1034.04,1235.97 1057.38,1245.8 1081.5,1254C 1156.37,1280.68 1232.87,1299.18 1311,1309.5C 1382.91,1310.59 1452.08,1295.75 1518.5,1265C 1534.17,1257.51 1548.84,1248.51 1562.5,1238C 1571.51,1230.67 1577.68,1221.51 1581,1210.5C 1582.21,1196.74 1576.04,1188.57 1562.5,1186C 1558.54,1185.17 1554.54,1184.67 1550.5,1184.5C 1540.12,1185.26 1529.78,1186.42 1519.5,1188C 1474.92,1198.05 1430.25,1207.72 1385.5,1217C 1338.46,1225.75 1291.96,1229.25 1246,1227.5C 1218.52,1225.66 1191.36,1220.5 1164.5,1212C 1146.1,1205.72 1130.27,1195.56 1117,1181.5C 1101.05,1158.38 1102.38,1135.38 1121,1112.5C 1129.5,1103.75 1139.84,1098.75 1152,1097.5C 1157,1097.5 1162,1097.5 1167,1097.5C 1193.51,1101.76 1219.84,1105.1 1246,1107.5C 1250.67,1107.5 1255.33,1107.5 1260,1107.5C 1288.27,1105.56 1315.77,1099.73 1342.5,1090C 1433.82,1061.5 1522.82,1027.17 1609.5,987C 1622.84,980 1635.51,972 1647.5,963C 1656.5,956.021 1662.16,947.021 1664.5,936C 1663.05,928.105 1659.05,921.772 1652.5,917C 1636.76,907.641 1619.76,901.641 1601.5,899C 1591.32,897.479 1581.15,896.313 1571,895.5C 1561.48,895.629 1550.65,896.463 1538.5,898C 1484.81,917.757 1430.15,934.423 1374.5,948C 1344.92,955.644 1315.26,962.811 1285.5,969.5C 1292.96,940.654 1295.46,911.321 1293,881.5C 1288.83,832.485 1278.5,784.818 1262,738.5C 1238.85,673.523 1206.85,613.523 1166,558.5C 1142.45,526.981 1112.62,503.481 1076.5,488C 1053.58,478.582 1029.91,471.582 1005.5,467C 995.305,453.961 983.972,441.961 971.5,431C 879.999,360.097 775.999,326.764 659.5,331C 639.314,331.669 619.314,333.836 599.5,337.5C 589.676,339.742 580.01,342.575 570.5,346C 599.942,356.196 628.609,368.03 656.5,381.5C 639.257,385.727 622.257,390.727 605.5,396.5C 592.204,397.894 582.037,404.227 575,415.5C 569.528,424.083 566.362,433.416 565.5,443.5C 641.864,437.296 717.531,442.129 792.5,458C 799.839,459.488 806.839,461.655 813.5,464.5C 761.56,470.484 712.56,485.484 666.5,509.5C 619.503,532.328 583.336,566.662 558,612.5C 527.217,672.41 513.55,736.077 517,803.5C 517.895,817.509 518.895,831.509 520,845.5C 525.853,883.671 532.52,921.671 540,959.5C 554.755,1033.28 569.755,1106.94 585,1180.5C 628.208,1382.71 670.708,1585.04 712.5,1787.5C 537.766,1722.26 398.932,1611.92 296,1456.5C 188.089,1286.48 145.089,1100.82 167,899.5C 193.859,695.606 281.692,523.439 430.5,383C 602.466,228.665 804.8,154.998 1037.5,162C 1254.04,174.736 1439.2,256.236 1593,406.5C 1762.86,581.634 1844.2,791.967 1837,1037.5C 1822.77,1271.75 1729.93,1467.59 1558.5,1625C 1454.16,1717.6 1333.66,1780.77 1197,1814.5C 1196.5,1814.17 1196,1813.83 1195.5,1813.5C 1171.87,1769.23 1148.53,1724.9 1125.5,1680.5 Z"/></g>
<g><path style="opacity:1" fill="#d6d5d6" d="M 599.5,337.5 C 616.484,345.166 632.484,354.666 647.5,366C 653.888,369.861 660.554,373.194 667.5,376C 663.807,377.847 660.14,379.68 656.5,381.5C 628.609,368.03 599.942,356.196 570.5,346C 580.01,342.575 589.676,339.742 599.5,337.5 Z"/></g>
<g><path style="opacity:1" fill="#d5d6d6" d="M 605.5,396.5 C 598.932,399.715 593.099,404.049 588,409.5C 585.896,413.482 584.396,417.648 583.5,422C 584.126,422.75 584.626,423.584 585,424.5C 667.794,415.515 749.628,428.015 830.5,462C 824.799,462.754 819.132,463.587 813.5,464.5C 806.839,461.655 799.839,459.488 792.5,458C 717.531,442.129 641.864,437.296 565.5,443.5C 566.362,433.416 569.528,424.083 575,415.5C 582.037,404.227 592.204,397.894 605.5,396.5 Z"/></g>
<g><path style="opacity:1" fill="#d5d6d7" d="M 666.5,509.5 C 604.044,547.316 567.211,602.649 556,675.5C 553.561,692.711 551.728,710.211 550.5,728C 550.5,736.667 550.5,745.333 550.5,754C 553.532,804.836 560.699,856.003 572,907.5C 632.824,1205.63 694.991,1503.46 758.5,1801C 758.167,1801.5 757.833,1802 757.5,1802.5C 742.329,1797.67 727.329,1792.67 712.5,1787.5C 670.708,1585.04 628.208,1382.71 585,1180.5C 569.755,1106.94 554.755,1033.28 540,959.5C 532.52,921.671 525.853,883.671 520,845.5C 518.895,831.509 517.895,817.509 517,803.5C 513.55,736.077 527.217,672.41 558,612.5C 583.336,566.662 619.503,532.328 666.5,509.5 Z"/></g>
<g><path style="opacity:1" fill="#5065ab" d="M 1152.5,633.5 C 1152.58,634.75 1153.24,635.583 1154.5,636C 1153.03,637.098 1152.2,638.598 1152,640.5C 1151.33,635.167 1150.67,635.167 1150,640.5C 1149.81,638.423 1149.31,636.423 1148.5,634.5C 1147.02,636.678 1145.69,639.012 1144.5,641.5C 1145.18,644.461 1146.02,644.795 1147,642.5C 1148.69,643.325 1148.85,644.325 1147.5,645.5C 1148.65,647.149 1149.98,648.649 1151.5,650C 1150.55,650.617 1149.72,650.451 1149,649.5C 1148.08,650.047 1147.24,650.713 1146.5,651.5C 1147.56,653.656 1148.89,654.656 1150.5,654.5C 1130.95,654.848 1112.28,659.348 1094.5,668C 1090.54,670.234 1087.04,673.067 1084,676.5C 1089.57,652.932 1104.41,638.766 1128.5,634C 1136.53,632.412 1144.53,632.245 1152.5,633.5 Z"/></g>
<g><path style="opacity:1" fill="#3b5799" d="M 1152.5,633.5 C 1179.55,635.722 1199.21,648.888 1211.5,673C 1201.2,668.198 1190.53,663.865 1179.5,660C 1169.71,657.043 1160.05,655.209 1150.5,654.5C 1148.89,654.656 1147.56,653.656 1146.5,651.5C 1147.24,650.713 1148.08,650.047 1149,649.5C 1149.72,650.451 1150.55,650.617 1151.5,650C 1149.98,648.649 1148.65,647.149 1147.5,645.5C 1148.85,644.325 1148.69,643.325 1147,642.5C 1146.02,644.795 1145.18,644.461 1144.5,641.5C 1145.69,639.012 1147.02,636.678 1148.5,634.5C 1149.31,636.423 1149.81,638.423 1150,640.5C 1150.67,635.167 1151.33,635.167 1152,640.5C 1152.2,638.598 1153.03,637.098 1154.5,636C 1153.24,635.583 1152.58,634.75 1152.5,633.5 Z"/></g>
<g><path style="opacity:1" fill="#3c579a" d="M 699.5,676.5 C 700.317,674.692 699.65,673.192 697.5,672C 699.679,671.558 700.345,670.558 699.5,669C 702.563,666.127 702.896,662.627 700.5,658.5C 701.391,657.41 702.391,657.41 703.5,658.5C 705.213,658.121 706.213,657.121 706.5,655.5C 732.282,651.874 754.616,658.874 773.5,676.5C 773.167,676.833 772.833,677.167 772.5,677.5C 748.28,668.631 723.947,668.298 699.5,676.5 Z"/></g>
<g><path style="opacity:1" fill="#5367ad" d="M 706.5,655.5 C 706.213,657.121 705.213,658.121 703.5,658.5C 702.391,657.41 701.391,657.41 700.5,658.5C 702.896,662.627 702.563,666.127 699.5,669C 700.345,670.558 699.679,671.558 697.5,672C 699.65,673.192 700.317,674.692 699.5,676.5C 681.566,684.734 665.733,696.067 652,710.5C 644.365,719.494 639.365,729.827 637,741.5C 627.542,712.641 635.709,689.475 661.5,672C 675.361,663.435 690.361,657.935 706.5,655.5 Z"/></g>
<g><path style="opacity:1" fill="#2e4f8f" d="M 1176.5,769.5 C 1204.35,770.11 1222.85,784.11 1232,811.5C 1236.58,841.504 1225.08,862.671 1197.5,875C 1168.22,883.201 1145.72,873.701 1130,846.5C 1118.92,814.037 1128.42,789.87 1158.5,774C 1164.48,771.839 1170.48,770.339 1176.5,769.5 Z"/></g>
<g><path style="opacity:1" fill="#fafbfb" d="M 1201.5,791.5 C 1215.8,793.435 1220.3,801.102 1215,814.5C 1205.1,823.091 1196.77,821.758 1190,810.5C 1188.25,800.644 1192.09,794.31 1201.5,791.5 Z"/></g>
<g><path style="opacity:1" fill="#2e4f8f" d="M 749.5,798.5 C 777.467,796.731 798.633,807.731 813,831.5C 827.487,866.07 819.653,894.236 789.5,916C 759.391,930.71 732.558,926.21 709,902.5C 690.831,877.134 689.831,851.134 706,824.5C 717.084,810.044 731.584,801.378 749.5,798.5 Z"/></g>
<g><path style="opacity:1" fill="#fbfbfb" d="M 784.5,823.5 C 801.158,827.146 805.658,836.479 798,851.5C 790.474,858.432 782.64,858.932 774.5,853C 767.568,845.474 767.068,837.64 773,829.5C 776.308,826.265 780.141,824.265 784.5,823.5 Z"/></g>
<g><path style="opacity:1" fill="#fcd10a" d="M 1011.5,1224.5 C 987.998,1207.16 970.165,1185.16 958,1158.5C 949.516,1139.45 947.516,1119.79 952,1099.5C 958.145,1086.01 966.645,1074.18 977.5,1064C 1010.65,1032.91 1048.98,1010.24 1092.5,996C 1102.98,992.972 1113.64,990.972 1124.5,990C 1156.62,988.48 1188.95,986.146 1221.5,983C 1243.33,980.203 1264.66,975.703 1285.5,969.5C 1315.26,962.811 1344.92,955.644 1374.5,948C 1430.15,934.423 1484.81,917.757 1538.5,898C 1550.65,896.463 1561.48,895.629 1571,895.5C 1581.15,896.313 1591.32,897.479 1601.5,899C 1619.76,901.641 1636.76,907.641 1652.5,917C 1659.05,921.772 1663.05,928.105 1664.5,936C 1662.16,947.021 1656.5,956.021 1647.5,963C 1635.51,972 1622.84,980 1609.5,987C 1522.82,1027.17 1433.82,1061.5 1342.5,1090C 1315.77,1099.73 1288.27,1105.56 1260,1107.5C 1255.33,1107.5 1250.67,1107.5 1246,1107.5C 1219.84,1105.1 1193.51,1101.76 1167,1097.5C 1162,1097.5 1157,1097.5 1152,1097.5C 1139.84,1098.75 1129.5,1103.75 1121,1112.5C 1102.38,1135.38 1101.05,1158.38 1117,1181.5C 1130.27,1195.56 1146.1,1205.72 1164.5,1212C 1191.36,1220.5 1218.52,1225.66 1246,1227.5C 1291.96,1229.25 1338.46,1225.75 1385.5,1217C 1430.25,1207.72 1474.92,1198.05 1519.5,1188C 1529.78,1186.42 1540.12,1185.26 1550.5,1184.5C 1554.54,1184.67 1558.54,1185.17 1562.5,1186C 1576.04,1188.57 1582.21,1196.74 1581,1210.5C 1577.68,1221.51 1571.51,1230.67 1562.5,1238C 1548.84,1248.51 1534.17,1257.51 1518.5,1265C 1452.08,1295.75 1382.91,1310.59 1311,1309.5C 1232.87,1299.18 1156.37,1280.68 1081.5,1254C 1057.38,1245.8 1034.04,1235.97 1011.5,1224.5 Z"/></g>
<g><path style="opacity:1" fill="#f4c4b6" d="M 1011.5,1231.5 C 1011.04,1236.16 1010.54,1240.83 1010,1245.5C 1009.33,1244.75 1008.5,1244.41 1007.5,1244.5C 1007.27,1239.32 1008.11,1234.32 1010,1229.5C 1010.28,1230.42 1010.78,1231.08 1011.5,1231.5 Z"/></g>
<g><path style="opacity:1" fill="#64bc45" d="M 1126.5,1676.5 C 1116.52,1680.89 1106.35,1683.89 1096,1685.5C 1084.51,1688.26 1073.18,1690.26 1062,1691.5C 1049.94,1691.44 1037.61,1691.44 1025,1691.5C 1014.25,1690.68 1004.08,1687.85 994.5,1683C 988.243,1677.15 984.909,1670.15 984.5,1662C 983.833,1659.67 983.167,1657.33 982.5,1655C 982.846,1641.88 982.846,1629.55 982.5,1618C 983.167,1611.67 983.833,1605.33 984.5,1599C 984.248,1588.02 984.082,1575.86 984,1562.5C 978.714,1565.45 974.38,1569.45 971,1574.5C 969.899,1584.34 969.065,1594.17 968.5,1604C 968.403,1609.46 968.736,1615.12 969.5,1621C 968.833,1625.67 968.167,1630.33 967.5,1635C 967.981,1647.01 967.981,1659.68 967.5,1673C 968.148,1683.46 971.815,1692.62 978.5,1700.5C 939.27,1722.45 898.937,1742.28 857.5,1760C 846.47,1764.29 835.137,1767.45 823.5,1769.5C 818.844,1769.6 814.677,1767.94 811,1764.5C 804.999,1752.83 800.999,1740.5 799,1727.5C 793.601,1696.01 790.434,1664.51 789.5,1633C 788.35,1617.62 787.35,1601.95 786.5,1586C 786.5,1559.33 786.5,1532.67 786.5,1506C 783.967,1489.87 790.8,1481.71 807,1481.5C 822.539,1482.87 837.705,1486.04 852.5,1491C 899.998,1507.72 946.165,1527.56 991,1550.5C 998.855,1543.99 1007.69,1539.15 1017.5,1536C 1030.35,1532.04 1043.35,1528.87 1056.5,1526.5C 1074.16,1524 1092,1523 1110,1523.5C 1113.45,1524.38 1116.95,1525.22 1120.5,1526C 1123.62,1526.73 1126.29,1528.23 1128.5,1530.5C 1130.79,1536.01 1132.63,1541.67 1134,1547.5C 1160.56,1527.8 1187.72,1508.97 1215.5,1491C 1240.56,1474.63 1266.9,1460.63 1294.5,1449C 1308.13,1442.62 1317.96,1446.12 1324,1459.5C 1329.06,1472.09 1332.73,1485.09 1335,1498.5C 1339.06,1523.86 1341.89,1549.03 1343.5,1574C 1343.45,1595.12 1343.45,1616.45 1343.5,1638C 1342.35,1658.7 1339.52,1679.2 1335,1699.5C 1333.47,1704.89 1331.14,1709.89 1328,1714.5C 1325.93,1716.56 1323.43,1717.73 1320.5,1718C 1302.77,1718.13 1285.44,1715.47 1268.5,1710C 1224.76,1697.25 1181.76,1682.42 1139.5,1665.5C 1136.55,1670.81 1132.22,1674.47 1126.5,1676.5 Z"/></g>
<g><path style="opacity:1" fill="#43a244" d="M 1126.5,1676.5 C 1126.57,1677.96 1126.23,1679.29 1125.5,1680.5C 1123.05,1687.45 1118.39,1692.28 1111.5,1695C 1071.86,1709.47 1031.53,1713.13 990.5,1706C 986.085,1704.96 982.085,1703.12 978.5,1700.5C 971.815,1692.62 968.148,1683.46 967.5,1673C 967.981,1659.68 967.981,1647.01 967.5,1635C 968.167,1630.33 968.833,1625.67 969.5,1621C 968.736,1615.12 968.403,1609.46 968.5,1604C 969.065,1594.17 969.899,1584.34 971,1574.5C 974.38,1569.45 978.714,1565.45 984,1562.5C 984.082,1575.86 984.248,1588.02 984.5,1599C 983.833,1605.33 983.167,1611.67 982.5,1618C 982.846,1629.55 982.846,1641.88 982.5,1655C 983.167,1657.33 983.833,1659.67 984.5,1662C 984.909,1670.15 988.243,1677.15 994.5,1683C 1004.08,1687.85 1014.25,1690.68 1025,1691.5C 1037.61,1691.44 1049.94,1691.44 1062,1691.5C 1073.18,1690.26 1084.51,1688.26 1096,1685.5C 1106.35,1683.89 1116.52,1680.89 1126.5,1676.5 Z"/></g>
</svg>
